<svg width="17" height="17" viewBox="0 0 17 17" fill="none" xmlns="http://www.w3.org/2000/svg">
  <path d="M10.1604 7.15881C10.5756 7.32208 11.0273 7.41174 11.5 7.41174C13.5334 7.41174 15.1818 5.75256 15.1818 3.70587C15.1818 1.65918 13.5334 0 11.5 0C9.81354 0 8.39191 1.1413 7.95587 2.69836C9.29303 3.5282 10.1818 5.01501 10.1818 6.70587C10.1818 6.85864 10.1746 7.0097 10.1604 7.15881Z" fill="#E7F0FF"/>
  <path d="M11 14V13.7059C11 12.2708 10.2983 10.9985 9.22223 10.2196L8.87451 9.9679C9.21564 9.61133 9.50128 9.20087 9.71765 8.75079C10.2748 8.95026 10.8748 9.05884 11.5 9.05884C12.6727 9.05884 13.7567 8.67682 14.6359 8.02966C15.462 8.62762 16 9.60352 16 10.7059V14H11Z" fill="#E7F0FF"/>
  <path fill-rule="evenodd" clip-rule="evenodd" d="M5.5 10.4118C3.46658 10.4118 1.81818 8.75259 1.81818 6.70588C1.81818 4.65917 3.46658 3 5.5 3C7.53342 3 9.18182 4.65917 9.18182 6.70588C9.18182 8.75259 7.53342 10.4118 5.5 10.4118Z" fill="#E7F0FF"/>
  <path d="M10 13.7059C10 12.6035 9.46202 11.6276 8.6359 11.0297C7.75664 11.6768 6.67264 12.0588 5.5 12.0588C4.32736 12.0588 3.24336 11.6768 2.3641 11.0297C1.53798 11.6276 1 12.6035 1 13.7059V17H10V13.7059Z" fill="#E7F0FF"/>
</svg>
