<svg width="16" height="16" viewBox="0 0 16 16" fill="none" xmlns="http://www.w3.org/2000/svg">
  <path d="M8.00002 4.66667C9.84002 4.66667 11.3334 6.16 11.3334 8C11.3334 8.43333 11.2467 8.84 11.0934 9.22L13.04 11.1667C14.0467 10.3267 14.84 9.24 15.3267 8C14.1734 5.07333 11.3267 3 7.99335 3C7.06002 3 6.16669 3.16667 5.34002 3.46667L6.78002 4.90667C7.16002 4.75333 7.56669 4.66667 8.00002 4.66667ZM1.33335 2.84667L2.85335 4.36667L3.16002 4.67333C2.05335 5.53333 1.18669 6.68 0.666687 8C1.82002 10.9267 4.66669 13 8.00002 13C9.03335 13 10.02 12.8 10.92 12.44L11.2 12.72L13.1534 14.6667L14 13.82L2.18002 2L1.33335 2.84667ZM5.02002 6.53333L6.05335 7.56667C6.02002 7.70667 6.00002 7.85333 6.00002 8C6.00002 9.10667 6.89335 10 8.00002 10C8.14669 10 8.29335 9.98 8.43335 9.94667L9.46669 10.98C9.02002 11.2 8.52669 11.3333 8.00002 11.3333C6.16002 11.3333 4.66669 9.84 4.66669 8C4.66669 7.47333 4.80002 6.98 5.02002 6.53333ZM7.89335 6.01333L9.99335 8.11333L10.0067 8.00667C10.0067 6.9 9.11335 6.00667 8.00669 6.00667L7.89335 6.01333Z" fill="#CED9E5"/>
</svg>
