<svg width="102" height="16" viewBox="0 0 102 16" fill="none" xmlns="http://www.w3.org/2000/svg">
  <path fill-rule="evenodd" clip-rule="evenodd" d="M30.9626 10.5117H32.9275L34.5821 15.7932H38.3568V15.6185L36.3298 9.63826C37.3226 9.22725 38.0948 8.66893 38.6464 7.96339C39.1979 7.25094 39.5116 6.35361 39.5874 5.27125C39.684 3.90118 39.2703 2.82227 38.3465 2.03452C37.4295 1.23986 36.1196 0.842578 34.4167 0.842578L29.1011 0.832302L26.495 15.7932H30.0318L30.9626 10.5117ZM33.5066 7.7476L31.4383 7.72705L32.1622 3.61692L34.5614 3.62719C35.4026 3.66829 35.8921 4.06903 36.0299 4.82941C36.1058 5.2747 36.0541 5.73709 35.8748 6.21658C35.6956 6.68924 35.3957 7.06261 34.9751 7.33659C34.5614 7.61057 34.0719 7.7476 33.5066 7.7476Z" fill="white"/>
  <path fill-rule="evenodd" clip-rule="evenodd" d="M42.7313 15.3C43.5172 15.7589 44.4101 15.9919 45.4097 15.9987H45.5959C46.4921 15.985 47.316 15.8103 48.0675 15.4747C48.8259 15.1321 49.4154 14.6629 49.8359 14.0669L48.4088 12.1865C47.6228 12.9675 46.7369 13.3442 45.751 13.3168C45.1443 13.2963 44.6824 13.1045 44.3652 12.7414C44.0481 12.3783 43.8826 11.9057 43.8688 11.3234H50.5288L50.7253 9.9157C50.8356 8.88817 50.7322 7.96339 50.415 7.14136C50.0979 6.31251 49.5981 5.66516 48.9155 5.19932C48.233 4.72665 47.4125 4.4835 46.4542 4.46977C44.8685 4.42867 43.5276 4.94244 42.4314 6.01107C41.342 7.07288 40.7043 8.51825 40.5182 10.3473L40.4872 10.635C40.4044 11.6282 40.563 12.5394 40.9629 13.3682C41.3627 14.1902 41.9522 14.8341 42.7313 15.3ZM44.9754 7.5832C45.3339 7.26811 45.7545 7.11736 46.2371 7.13108C46.9885 7.15163 47.4229 7.50445 47.5401 8.18944C47.5677 8.40177 47.5608 8.62783 47.5194 8.86761L47.4574 9.1656H44.055C44.317 8.42578 44.6238 7.89828 44.9754 7.5832Z" fill="white"/>
  <path d="M56.0408 6.0008L56.2684 4.665L53.1038 4.67528L51.1596 15.7932H54.562L55.9374 8.04559C56.4545 7.43589 57.0061 7.13108 57.5921 7.13108C58.2332 7.13108 58.5538 7.4839 58.5538 8.18944L58.5125 8.80596L57.3335 15.7932H60.7462L62.101 8.04559C62.6181 7.43589 63.1765 7.13108 63.7763 7.13108C64.4175 7.15163 64.7381 7.501 64.7381 8.17917L64.6967 8.78541L63.5074 15.7932H66.9201L68.0887 8.79569C68.2266 7.43252 68.0439 6.37753 67.5406 5.63088C67.0442 4.87733 66.279 4.49032 65.2448 4.46977C63.9625 4.4424 62.8283 5.00064 61.8424 6.14465C61.6977 5.64461 61.4081 5.24387 60.9738 4.94244C60.5394 4.641 59.9844 4.4835 59.3088 4.46977C58.0264 4.4424 56.9371 4.95271 56.0408 6.0008Z" fill="white"/>
  <path fill-rule="evenodd" clip-rule="evenodd" d="M75.1106 14.7862C75.1106 15.1904 75.1589 15.526 75.2554 15.7932H78.5647L78.5751 15.598C78.4165 15.2418 78.351 14.8102 78.3786 14.3033L78.4303 13.6662L79.268 8.43605C79.3438 7.66195 79.2231 6.9804 78.906 6.39126C78.5889 5.79529 78.1097 5.3329 77.4685 5.00409C76.8342 4.66845 76.0931 4.49032 75.2451 4.46977C74.3626 4.44922 73.5284 4.58962 72.7424 4.89106C71.9634 5.18559 71.3463 5.61033 70.8913 6.1652C70.4363 6.71325 70.1915 7.36059 70.157 8.10724L73.5698 8.09696C73.7421 7.26811 74.2006 6.86047 74.9452 6.8742C75.545 6.89475 75.8587 7.21674 75.8863 7.84008L75.8449 8.38467L75.7208 9.01147L74.5832 8.99092C72.8872 8.99092 71.5497 9.31628 70.5707 9.96708C69.5917 10.611 69.085 11.5358 69.0505 12.7414C69.0091 13.6388 69.309 14.4026 69.9502 15.0328C70.5914 15.6631 71.398 15.985 72.3701 15.9987C73.4319 16.0261 74.3454 15.622 75.1106 14.7862ZM75.1417 12.6387C74.6177 13.2757 74.0076 13.5805 73.3112 13.5532C73.0217 13.5394 72.8045 13.4436 72.6597 13.2655C72.5218 13.0805 72.4701 12.8476 72.5046 12.5667C72.5735 12.0392 72.8045 11.6249 73.1975 11.3234C73.5904 11.0152 74.0593 10.8542 74.6039 10.8405L75.4829 10.8508L75.1417 12.6387Z" fill="white"/>
  <path d="M83.901 12.762L85.1419 11.6933L86.7759 15.7932H90.5092L87.6239 9.40193L92.381 4.67528H88.0686L84.9765 7.93256L84.5628 8.42578L86.1347 0H82.7324L79.9712 15.7932H83.3735L83.901 12.762Z" fill="white"/>
  <path fill-rule="evenodd" clip-rule="evenodd" d="M93.9633 15.3C94.7492 15.7589 95.6421 15.9919 96.6417 15.9987H96.8279C97.7242 15.985 98.548 15.8103 99.2995 15.4747C100.058 15.1321 100.647 14.6629 101.068 14.0669L99.6408 12.1865C98.8548 12.9675 97.9689 13.3442 96.983 13.3168C96.3763 13.2963 95.9144 13.1045 95.5973 12.7414C95.2801 12.3783 95.1146 11.9057 95.1009 11.3234H101.761L101.957 9.9157C102.068 8.88817 101.964 7.96339 101.647 7.14136C101.33 6.31251 100.83 5.66516 100.148 5.19932C99.465 4.72665 98.6446 4.4835 97.6862 4.46977C96.1005 4.42867 94.7596 4.94244 93.6634 6.01107C92.5741 7.07288 91.9363 8.51825 91.7502 10.3473L91.7192 10.635C91.6364 11.6282 91.795 12.5394 92.1949 13.3682C92.5948 14.1902 93.1842 14.8341 93.9633 15.3ZM96.2074 7.5832C96.5659 7.26811 96.9865 7.11736 97.4691 7.13108C98.2206 7.15163 98.6549 7.50445 98.7721 8.18944C98.7997 8.40177 98.7928 8.62783 98.7514 8.86761L98.6894 9.1656H95.287C95.549 8.42578 95.8558 7.89828 96.2074 7.5832Z" fill="white"/>
  <path d="M2.64744 7.90173C2.64744 6.25696 3.02228 4.91578 3.67276 4.02271C4.28225 3.186 5.20101 2.64076 6.61859 2.64076V0.0102753C4.38082 0.0102753 2.65216 0.937223 1.52804 2.48053C0.444929 3.96756 0 5.9145 0 7.90173C0 9.88897 0.444929 11.8359 1.52804 13.3229C2.65216 14.8662 4.38082 15.7932 6.61859 15.7932V13.1627C5.20101 13.1627 4.28225 12.6175 3.67276 11.7808C3.02228 10.8877 2.64744 9.54651 2.64744 7.90173Z" fill="white"/>
  <path d="M14.8593 4.02271C15.5098 4.91578 15.8846 6.25696 15.8846 7.90173C15.8846 9.54651 15.5098 10.8877 14.8593 11.7808C14.2498 12.6175 13.331 13.1627 11.9135 13.1627V15.7932C14.1512 15.7932 15.8799 14.8662 17.004 13.3229C18.0871 11.8359 18.5321 9.88897 18.5321 7.90173C18.5321 5.9145 18.0871 3.96756 17.004 2.48053C15.8799 0.937223 14.1512 0.0102753 11.9135 0.0102753V2.64076C13.331 2.64076 14.2498 3.186 14.8593 4.02271Z" fill="white"/>
  <path d="M9.26603 10.5322C10.7282 10.5322 11.9135 9.35449 11.9135 7.90173C11.9135 6.44898 10.7282 5.27125 9.26603 5.27125C7.80389 5.27125 6.61859 6.44898 6.61859 7.90173C6.61859 9.35449 7.80389 10.5322 9.26603 10.5322Z" fill="white"/>
</svg>
